# Blender 3.5.1
# www.blender.org
mtllib lowpoly_ring.mtl
o Torus
v 2.541903 0.000000 0.000000
v 2.190621 0.611624 0.000000
v 1.622234 0.378004 0.000000
v 1.622234 -0.378004 0.000000
v 2.190621 -0.611624 0.000000
v 1.947210 0.000000 -0.581229
v 1.678113 0.611624 -0.500905
v 1.242703 0.378004 -0.370938
v 1.242703 -0.378004 -0.370938
v 1.678113 -0.611624 -0.500905
v 0.441397 0.000000 -0.890494
v 0.380397 0.611624 -0.767431
v 0.281698 0.378004 -0.568310
v 0.281698 -0.378004 -0.568310
v 0.380397 -0.611624 -0.767431
v -1.270951 0.000000 -0.783087
v -1.095310 0.611624 -0.674867
v -0.811117 0.378004 -0.499764
v -0.811117 -0.378004 -0.499764
v -1.095310 -0.611624 -0.674867
v -2.388607 0.000000 -0.309266
v -2.058510 0.611624 -0.266526
v -1.524401 0.378004 -0.197372
v -1.524401 -0.378004 -0.197372
v -2.058510 -0.611624 -0.266526
v -2.388608 0.000000 0.309265
v -2.058510 0.611624 0.266526
v -1.524401 0.378004 0.197372
v -1.524401 -0.378004 0.197372
v -2.058510 -0.611624 0.266526
v -1.270951 0.000000 0.783087
v -1.095310 0.611624 0.674867
v -0.811117 0.378004 0.499764
v -0.811117 -0.378004 0.499764
v -1.095310 -0.611624 0.674867
v 0.441397 0.000000 0.890494
v 0.380397 0.611624 0.767431
v 0.281698 0.378004 0.568310
v 0.281698 -0.378004 0.568310
v 0.380397 -0.611624 0.767431
v 1.947210 0.000000 0.581229
v 1.678113 0.611624 0.500905
v 1.242703 0.378004 0.370938
v 1.242703 -0.378004 0.370938
v 1.678113 -0.611624 0.500905
vn 0.6486 0.3725 -0.6637
vn -0.3543 0.8620 0.3625
vn -0.6990 -0.0000 0.7152
vn -0.3543 -0.8620 0.3625
vn 0.6486 -0.3725 -0.6637
vn 0.1966 0.2122 -0.9572
vn -0.1481 0.6770 0.7209
vn -0.2012 -0.0000 0.9796
vn -0.1481 -0.6770 0.7209
vn 0.1966 -0.2122 -0.9572
vn -0.0614 0.1910 -0.9797
vn 0.0483 0.6360 0.7702
vn 0.0626 -0.0000 0.9980
vn 0.0483 -0.6360 0.7702
vn -0.0614 -0.1910 -0.9797
vn -0.3763 0.2651 -0.8877
vn 0.2542 0.7588 0.5997
vn 0.3903 -0.0000 0.9207
vn 0.2542 -0.7588 0.5997
vn -0.3763 -0.2651 -0.8877
vn -0.8800 0.4749 -0.0000
vn 0.4007 0.9162 -0.0000
vn 1.0000 -0.0000 -0.0000
vn 0.4007 -0.9162 -0.0000
vn -0.8800 -0.4749 -0.0000
vn -0.3763 0.2651 0.8877
vn 0.2542 0.7588 -0.5997
vn 0.3903 -0.0000 -0.9207
vn 0.2542 -0.7588 -0.5997
vn -0.3763 -0.2651 0.8877
vn -0.0614 0.1910 0.9797
vn 0.0483 0.6360 -0.7702
vn 0.0626 -0.0000 -0.9980
vn 0.0483 -0.6360 -0.7702
vn -0.0614 -0.1910 0.9797
vn 0.1966 0.2122 0.9572
vn -0.1481 0.6770 -0.7209
vn -0.2012 -0.0000 -0.9796
vn -0.1481 -0.6770 -0.7209
vn 0.1966 -0.2122 0.9572
vn 0.6486 0.3725 0.6637
vn -0.3543 0.8620 -0.3625
vn -0.6990 -0.0000 -0.7152
vn -0.3543 -0.8620 -0.3625
vn 0.6486 -0.3725 0.6637
vt 0.555556 0.600000
vt 0.555556 0.800000
vt 0.555556 1.000000
vt 0.555556 0.000000
vt 0.555556 0.200000
vt 0.555556 0.400000
vt 0.666667 0.600000
vt 0.666667 0.800000
vt 0.666667 1.000000
vt 0.666667 0.000000
vt 0.666667 0.200000
vt 0.666667 0.400000
vt 0.777778 0.600000
vt 0.777778 0.800000
vt 0.777778 0.000000
vt 0.777778 1.000000
vt 0.777778 0.200000
vt 0.777778 0.400000
vt 0.888889 0.600000
vt 0.888889 0.800000
vt 0.888889 0.000000
vt 0.888889 1.000000
vt 0.888889 0.200000
vt 0.888889 0.400000
vt 1.000000 0.600000
vt 0.000000 0.600000
vt 1.000000 0.800000
vt 0.000000 0.800000
vt 0.000000 1.000000
vt 0.000000 0.000000
vt 1.000000 1.000000
vt 1.000000 0.000000
vt 1.000000 0.200000
vt 0.000000 0.200000
vt 1.000000 0.400000
vt 0.000000 0.400000
vt 0.111111 0.600000
vt 0.111111 0.800000
vt 0.111111 0.000000
vt 0.111111 1.000000
vt 0.111111 0.200000
vt 0.111111 0.400000
vt 0.222222 0.600000
vt 0.222222 0.800000
vt 0.222222 0.000000
vt 0.222222 1.000000
vt 0.222222 0.200000
vt 0.222222 0.400000
vt 0.333333 0.600000
vt 0.333333 0.800000
vt 0.333333 0.000000
vt 0.333333 1.000000
vt 0.333333 0.200000
vt 0.333333 0.400000
vt 0.444444 0.600000
vt 0.444444 0.800000
vt 0.444444 0.000000
vt 0.444444 1.000000
vt 0.444444 0.200000
vt 0.444444 0.400000
s 0
f 6/7/1 2/2/1 1/1/1
f 7/8/2 3/3/2 2/2/2
f 8/10/3 4/5/3 3/4/3
f 9/11/4 5/6/4 4/5/4
f 10/12/5 1/1/5 5/6/5
f 6/7/6 12/14/6 7/8/6
f 7/8/7 13/16/7 8/9/7
f 13/15/8 9/11/8 8/10/8
f 14/17/9 10/12/9 9/11/9
f 10/12/10 11/13/10 6/7/10
f 16/19/11 12/14/11 11/13/11
f 17/20/12 13/16/12 12/14/12
f 18/21/13 14/17/13 13/15/13
f 19/23/14 15/18/14 14/17/14
f 20/24/15 11/13/15 15/18/15
f 21/25/16 17/20/16 16/19/16
f 22/27/17 18/22/17 17/20/17
f 23/32/18 19/23/18 18/21/18
f 24/33/19 20/24/19 19/23/19
f 25/35/20 16/19/20 20/24/20
f 26/37/21 22/28/21 21/26/21
f 22/28/22 28/40/22 23/29/22
f 28/39/23 24/34/23 23/30/23
f 29/41/24 25/36/24 24/34/24
f 30/42/25 21/26/25 25/36/25
f 31/43/26 27/38/26 26/37/26
f 32/44/27 28/40/27 27/38/27
f 33/45/28 29/41/28 28/39/28
f 34/47/29 30/42/29 29/41/29
f 35/48/30 26/37/30 30/42/30
f 36/49/31 32/44/31 31/43/31
f 37/50/32 33/46/32 32/44/32
f 38/51/33 34/47/33 33/45/33
f 39/53/34 35/48/34 34/47/34
f 35/48/35 36/49/35 31/43/35
f 36/49/36 42/56/36 37/50/36
f 42/56/37 38/52/37 37/50/37
f 43/57/38 39/53/38 38/51/38
f 39/53/39 45/60/39 40/54/39
f 40/54/40 41/55/40 36/49/40
f 1/1/41 42/56/41 41/55/41
f 2/2/42 43/58/42 42/56/42
f 3/4/43 44/59/43 43/57/43
f 44/59/44 5/6/44 45/60/44
f 5/6/45 41/55/45 45/60/45
f 6/7/1 7/8/1 2/2/1
f 7/8/2 8/9/2 3/3/2
f 8/10/3 9/11/3 4/5/3
f 9/11/4 10/12/4 5/6/4
f 10/12/5 6/7/5 1/1/5
f 6/7/6 11/13/6 12/14/6
f 7/8/7 12/14/7 13/16/7
f 13/15/8 14/17/8 9/11/8
f 14/17/9 15/18/9 10/12/9
f 10/12/10 15/18/10 11/13/10
f 16/19/11 17/20/11 12/14/11
f 17/20/12 18/22/12 13/16/12
f 18/21/13 19/23/13 14/17/13
f 19/23/14 20/24/14 15/18/14
f 20/24/15 16/19/15 11/13/15
f 21/25/16 22/27/16 17/20/16
f 22/27/17 23/31/17 18/22/17
f 23/32/18 24/33/18 19/23/18
f 24/33/19 25/35/19 20/24/19
f 25/35/20 21/25/20 16/19/20
f 26/37/21 27/38/21 22/28/21
f 22/28/22 27/38/22 28/40/22
f 28/39/23 29/41/23 24/34/23
f 29/41/24 30/42/24 25/36/24
f 30/42/25 26/37/25 21/26/25
f 31/43/26 32/44/26 27/38/26
f 32/44/27 33/46/27 28/40/27
f 33/45/28 34/47/28 29/41/28
f 34/47/29 35/48/29 30/42/29
f 35/48/30 31/43/30 26/37/30
f 36/49/31 37/50/31 32/44/31
f 37/50/32 38/52/32 33/46/32
f 38/51/33 39/53/33 34/47/33
f 39/53/34 40/54/34 35/48/34
f 35/48/35 40/54/35 36/49/35
f 36/49/36 41/55/36 42/56/36
f 42/56/37 43/58/37 38/52/37
f 43/57/38 44/59/38 39/53/38
f 39/53/39 44/59/39 45/60/39
f 40/54/40 45/60/40 41/55/40
f 1/1/41 2/2/41 42/56/41
f 2/2/42 3/3/42 43/58/42
f 3/4/43 4/5/43 44/59/43
f 44/59/44 4/5/44 5/6/44
f 5/6/45 1/1/45 41/55/45
o Icosphere
v 0.000000 -1.000000 -1.491104
v 0.723607 -0.447220 -0.965379
v -0.276388 -0.447220 -0.640455
v -0.894426 -0.447216 -1.491104
v -0.276388 -0.447220 -2.341753
v 0.723607 -0.447220 -2.016829
v 0.276388 0.447220 -0.640455
v -0.723607 0.447220 -0.965379
v -0.723607 0.447220 -2.016829
v 0.276388 0.447220 -2.341753
v 0.894426 0.447216 -1.491104
v 0.000000 1.000000 -1.491104
v -0.162456 -0.850654 -0.991109
v 0.425323 -0.850654 -1.182093
v 0.262869 -0.525738 -0.682093
v 0.850648 -0.525736 -1.491104
v 0.425323 -0.850654 -1.800116
v -0.525730 -0.850652 -1.491104
v -0.688189 -0.525736 -0.991107
v -0.162456 -0.850654 -1.991099
v -0.688189 -0.525736 -1.991101
v 0.262869 -0.525738 -2.300116
v 0.951058 0.000000 -1.182092
v 0.951058 0.000000 -1.800117
v 0.000000 0.000000 -0.491104
v 0.587786 0.000000 -0.682088
v -0.951058 0.000000 -1.182092
v -0.587786 0.000000 -0.682088
v -0.587786 0.000000 -2.300121
v -0.951058 0.000000 -1.800117
v 0.587786 0.000000 -2.300121
v 0.000000 0.000000 -2.491104
v 0.688189 0.525736 -0.991107
v -0.262869 0.525738 -0.682093
v -0.850648 0.525736 -1.491104
v -0.262869 0.525738 -2.300116
v 0.688189 0.525736 -1.991101
v 0.162456 0.850654 -0.991109
v 0.525730 0.850652 -1.491104
v -0.425323 0.850654 -1.182093
v -0.425323 0.850654 -1.800116
v 0.162456 0.850654 -1.991099
vn 0.1024 -0.9435 0.3151
vn 0.7002 -0.6617 0.2680
vn -0.2680 -0.9435 0.1947
vn -0.2680 -0.9435 -0.1947
vn 0.1024 -0.9435 -0.3151
vn 0.9050 -0.3304 0.2680
vn 0.0247 -0.3304 0.9435
vn -0.8897 -0.3304 0.3151
vn -0.5746 -0.3304 -0.7488
vn 0.5346 -0.3304 -0.7779
vn 0.8026 -0.1256 0.5831
vn -0.3066 -0.1256 0.9435
vn -0.9921 -0.1256 -0.0000
vn -0.3066 -0.1256 -0.9435
vn 0.8026 -0.1256 -0.5831
vn 0.4089 0.6617 0.6284
vn -0.4713 0.6617 0.5831
vn -0.7002 0.6617 -0.2680
vn 0.0385 0.6617 -0.7488
vn 0.7240 0.6617 -0.1947
vn 0.2680 0.9435 -0.1947
vn 0.4911 0.7947 -0.3568
vn 0.4089 0.6617 -0.6284
vn -0.1024 0.9435 -0.3151
vn -0.1876 0.7947 -0.5773
vn -0.4713 0.6617 -0.5831
vn -0.3313 0.9435 -0.0000
vn -0.6071 0.7947 -0.0000
vn -0.7002 0.6617 0.2680
vn -0.1024 0.9435 0.3151
vn -0.1876 0.7947 0.5773
vn 0.0385 0.6617 0.7488
vn 0.2680 0.9435 0.1947
vn 0.4911 0.7947 0.3568
vn 0.7240 0.6617 0.1947
vn 0.8897 0.3304 -0.3151
vn 0.7947 0.1876 -0.5773
vn 0.5746 0.3304 -0.7488
vn -0.0247 0.3304 -0.9435
vn -0.3035 0.1876 -0.9342
vn -0.5346 0.3304 -0.7779
vn -0.9050 0.3304 -0.2680
vn -0.9822 0.1876 -0.0000
vn -0.9050 0.3304 0.2680
vn -0.5346 0.3304 0.7779
vn -0.3035 0.1876 0.9342
vn -0.0247 0.3304 0.9435
vn 0.5746 0.3304 0.7488
vn 0.7947 0.1876 0.5773
vn 0.8897 0.3304 0.3151
vn 0.3066 0.1256 -0.9435
vn 0.3035 -0.1876 -0.9342
vn 0.0247 -0.3304 -0.9435
vn -0.8026 0.1256 -0.5831
vn -0.7947 -0.1876 -0.5773
vn -0.8897 -0.3304 -0.3151
vn -0.8026 0.1256 0.5831
vn -0.7947 -0.1876 0.5773
vn -0.5746 -0.3304 0.7488
vn 0.3066 0.1256 0.9435
vn 0.3035 -0.1876 0.9342
vn 0.5346 -0.3304 0.7779
vn 0.9921 0.1256 -0.0000
vn 0.9822 -0.1876 -0.0000
vn 0.9050 -0.3304 -0.2680
vn 0.4713 -0.6617 -0.5831
vn 0.1876 -0.7947 -0.5773
vn -0.0385 -0.6617 -0.7488
vn -0.4089 -0.6617 -0.6284
vn -0.4911 -0.7947 -0.3568
vn -0.7240 -0.6617 -0.1947
vn -0.7240 -0.6617 0.1947
vn -0.4911 -0.7947 0.3568
vn -0.4089 -0.6617 0.6284
vn 0.7002 -0.6617 -0.2680
vn 0.6071 -0.7947 -0.0000
vn 0.3313 -0.9435 -0.0000
vn -0.0385 -0.6617 0.7488
vn 0.1876 -0.7947 0.5773
vn 0.4713 -0.6617 0.5831
vt 0.181819 0.000000
vt 0.909091 0.000000
vt 0.727273 0.000000
vt 0.545455 0.000000
vt 0.363637 0.000000
vt 0.272728 0.157461
vt 1.000000 0.157461
vt 0.090910 0.157461
vt 0.818182 0.157461
vt 0.636364 0.157461
vt 0.454546 0.157461
vt 0.181819 0.314921
vt 0.000000 0.314921
vt 0.909091 0.314921
vt 0.727273 0.314921
vt 0.545455 0.314921
vt 0.363637 0.314921
vt 0.454546 0.472382
vt 0.636364 0.472382
vt 0.818182 0.472382
vt 0.090910 0.472382
vt 0.272728 0.472382
vt 0.954545 0.078731
vt 0.136365 0.078731
vt 0.318182 0.078731
vt 0.227273 0.078731
vt 0.181819 0.157461
vt 0.363637 0.157461
vt 0.500000 0.078731
vt 0.409092 0.078731
vt 0.772727 0.078731
vt 0.863636 0.078731
vt 0.909091 0.157461
vt 0.590909 0.078731
vt 0.681818 0.078731
vt 0.727273 0.157461
vt 0.545455 0.157461
vt 0.318182 0.236191
vt 0.409092 0.236191
vt 0.136365 0.236191
vt 0.227273 0.236191
vt 0.863636 0.236191
vt 0.045455 0.236191
vt 0.954545 0.236191
vt 0.681818 0.236191
vt 0.772727 0.236191
vt 0.500000 0.236191
vt 0.590909 0.236191
vt 0.272728 0.314921
vt 0.090910 0.314921
vt 0.818182 0.314921
vt 0.636364 0.314921
vt 0.454546 0.314921
vt 0.136365 0.393651
vt 0.227273 0.393651
vt 0.409092 0.393651
vt 0.318182 0.393651
vt 0.863636 0.393651
vt 0.045455 0.393651
vt 0.681818 0.393651
vt 0.772727 0.393651
vt 0.500000 0.393651
vt 0.590909 0.393651
s 0
f 46/61/46 59/86/46 58/84/46
f 47/66/47 59/85/47 61/88/47
f 46/62/48 58/83/48 63/92/48
f 46/63/49 63/91/49 65/95/49
f 46/64/50 65/94/50 62/89/50
f 47/66/51 61/88/51 68/98/51
f 48/68/52 60/87/52 70/100/52
f 49/69/53 64/93/53 72/102/53
f 50/70/54 66/96/54 74/105/54
f 51/71/55 67/97/55 76/107/55
f 47/66/56 68/98/56 71/101/56
f 48/68/57 70/100/57 73/103/57
f 49/69/58 72/102/58 75/106/58
f 50/70/59 74/105/59 77/108/59
f 51/71/60 76/107/60 69/99/60
f 52/72/61 78/109/61 83/115/61
f 53/73/62 79/110/62 85/119/62
f 54/75/63 80/111/63 86/121/63
f 55/76/64 81/112/64 87/123/64
f 56/77/65 82/113/65 84/116/65
f 84/116/66 87/122/66 57/78/66
f 84/116/67 82/113/67 87/122/67
f 82/113/68 55/76/68 87/122/68
f 87/123/69 86/120/69 57/79/69
f 87/123/70 81/112/70 86/120/70
f 81/112/71 54/75/71 86/120/71
f 86/121/72 85/118/72 57/80/72
f 86/121/73 80/111/73 85/118/73
f 80/111/74 53/74/74 85/118/74
f 85/119/75 83/114/75 57/81/75
f 85/119/76 79/110/76 83/114/76
f 79/110/77 52/72/77 83/114/77
f 83/115/78 84/117/78 57/82/78
f 83/115/79 78/109/79 84/117/79
f 78/109/80 56/77/80 84/117/80
f 69/99/81 82/113/81 56/77/81
f 69/99/82 76/107/82 82/113/82
f 76/107/83 55/76/83 82/113/83
f 77/108/84 81/112/84 55/76/84
f 77/108/85 74/105/85 81/112/85
f 74/105/86 54/75/86 81/112/86
f 75/106/87 80/111/87 54/75/87
f 75/106/88 72/102/88 80/111/88
f 72/102/89 53/74/89 80/111/89
f 73/103/90 79/110/90 53/73/90
f 73/103/91 70/100/91 79/110/91
f 70/100/92 52/72/92 79/110/92
f 71/101/93 78/109/93 52/72/93
f 71/101/94 68/98/94 78/109/94
f 68/98/95 56/77/95 78/109/95
f 76/107/96 77/108/96 55/76/96
f 76/107/97 67/97/97 77/108/97
f 67/97/98 50/70/98 77/108/98
f 74/105/99 75/106/99 54/75/99
f 74/105/100 66/96/100 75/106/100
f 66/96/101 49/69/101 75/106/101
f 72/102/102 73/104/102 53/74/102
f 72/102/103 64/93/103 73/104/103
f 64/93/104 48/67/104 73/104/104
f 70/100/105 71/101/105 52/72/105
f 70/100/106 60/87/106 71/101/106
f 60/87/107 47/66/107 71/101/107
f 68/98/108 69/99/108 56/77/108
f 68/98/109 61/88/109 69/99/109
f 61/88/110 51/71/110 69/99/110
f 62/89/111 67/97/111 51/71/111
f 62/89/112 65/94/112 67/97/112
f 65/94/113 50/70/113 67/97/113
f 65/95/114 66/96/114 50/70/114
f 65/95/115 63/91/115 66/96/115
f 63/91/116 49/69/116 66/96/116
f 63/92/117 64/93/117 49/69/117
f 63/92/118 58/83/118 64/93/118
f 58/83/119 48/67/119 64/93/119
f 61/88/120 62/90/120 51/71/120
f 61/88/121 59/85/121 62/90/121
f 59/85/122 46/65/122 62/90/122
f 58/84/123 60/87/123 48/68/123
f 58/84/124 59/86/124 60/87/124
f 59/86/125 47/66/125 60/87/125
